<svg height="44" viewBox="0 0 44 44" width="44" xmlns="http://www.w3.org/2000/svg">
  <!-- Curiosity + Concept + Craft by @nyuudo / www.nyuudo.com  -->

  <path
    d="m29.72946 37.59026-.40137.20507a19.54049 19.54049 0 0 1 -8.85937 2.12793 19.44923 19.44923 0 0 1 -13.74805-33.20263 19.45209 19.45209 0 0 1 31.0752 22.60742l-.20508.40137 4.668 12.52978z"
    fill="#fff" />
  <g fill="#4bab98">
    <path
      d="m20.4747 2.047a18.42957 18.42957 0 0 1 16.40967 26.8152l-.41052.8025.31469.84465 3.72889 10.0083-10.00843-3.72953-.84472-.31478-.80249.41046a18.51515 18.51515 0 0 1 -8.39356 2.01561 18.42476 18.42476 0 0 1 -13.02368-31.45492 18.30729 18.30729 0 0 1 13.03015-5.39749m0-2.0475a20.47369 20.47369 0 1 0 9.3193 38.70723l14.206 5.29374-5.29276-14.20591a20.477 20.477 0 0 0 -18.23254-29.79503z" />
    <path
      d="m12.04254 19.80643c-1.85548 0-3.1701-1.44963-3.1701-4.20147 0-3.05922 1.29-4.50891 3.30511-4.50891 1.92887 0 3.04706 1.634 3.04706 4.17715 0 3.1448-1.35154 4.53323-3.18207 4.53323zm.135-1.474c.81074 0 1.38839-.8229 1.38839-2.6787 0-2.30945-.50362-3.083-1.5234-3.083-.8357 0-1.5115.74855-1.5115 2.6906-.00003 2.30942.57772 3.07109 1.64652 3.07109z" />
    <path
      d="m18.93653 19.65894a.98237.98237 0 0 1 -1.01978-1.09343v-5.57738l-.81075.2949c-.8229.29491-1.35154.02438-1.43747-.49114l-.074-.43049 1.52372-.67548a3.49913 3.49913 0 0 1 1.5849-.44239.9013.9013 0 0 1 .897.89668v7.51873z" />
    <path
      d="m24.17115 19.80643c-1.85516 0-3.16985-1.44963-3.16985-4.20147 0-3.05922 1.29031-4.50891 3.30486-4.50891 1.92887 0 3.04706 1.634 3.04706 4.17715 0 3.1448-1.35154 4.53323-3.18207 4.53323zm.135-1.474c.811 0 1.38839-.8229 1.38839-2.6787 0-2.30945-.50362-3.083-1.5234-3.083-.83538 0-1.51118.74855-1.51118 2.6906.00004 2.30942.57734 3.07109 1.6462 3.07109z" />
    <path
      d="m31.06539 19.65894a.98235.98235 0 0 1 -1.01971-1.09343v-5.57738l-.81075.2949c-.82354.29491-1.35154.02438-1.43779-.49114l-.07339-.43049 1.52334-.67548a3.49818 3.49818 0 0 1 1.58495-.44239.901.901 0 0 1 .89662.89668v7.51873z" />
    <path
      d="m10.7585 30.04391c-1.85516 0-3.16984-1.44962-3.16984-4.20146 0-3.05922 1.29-4.50891 3.30511-4.50891 1.92893 0 3.0468 1.634 3.0468 4.17715 0 3.14483-1.35157 4.53322-3.18207 4.53322zm.13527-1.474c.81074 0 1.38814-.8229 1.38814-2.6787 0-2.30945-.50362-3.083-1.52341-3.083-.83544 0-1.51118.74855-1.51118 2.6906 0 2.30943.57733 3.0711 1.64645 3.0711z" />
    <path
      d="m18.03358 30.04391c-1.85516 0-3.16984-1.44962-3.16984-4.20146 0-3.05922 1.2903-4.50891 3.30517-4.50891 1.92855 0 3.04674 1.634 3.04674 4.17715 0 3.14483-1.35154 4.53322-3.18207 4.53322zm.13533-1.474c.811 0 1.3884-.8229 1.3884-2.6787 0-2.30945-.50394-3.083-1.52373-3.083-.83538 0-1.51118.74855-1.51118 2.6906 0 2.30943.5774 3.0711 1.64651 3.0711z" />
    <path
      d="m25.30866 30.04391c-1.85484 0-3.16952-1.44962-3.16952-4.20146 0-3.05922 1.29-4.50891 3.30485-4.50891 1.92887 0 3.04706 1.634 3.04706 4.17715 0 3.14483-1.35186 4.53322-3.18239 4.53322zm.13533-1.474c.81106 0 1.3884-.8229 1.3884-2.6787 0-2.30945-.50395-3.083-1.52373-3.083-.83506 0-1.51118.74855-1.51118 2.6906 0 2.30943.5774 3.0711 1.64652 3.0711z" />
    <path
      d="m32.20291 29.89643a.98236.98236 0 0 1 -1.01972-1.09343v-5.57738l-.81075.2949c-.82322.29491-1.35122.02438-1.43747-.49114l-.07371-.43049 1.52341-.67548a3.49966 3.49966 0 0 1 1.58489-.44239.90109.90109 0 0 1 .897.89668v7.51873z" />
  </g>
</svg>