<svg height="44" viewBox="0 0 44 44" width="44" xmlns="http://www.w3.org/2000/svg">
    <!-- Curiosity + Concept + Craft by @nyuudo / www.nyuudo.com  -->

    <path
        d="m29.72946 37.59026-.40137.20507a19.54049 19.54049 0 0 1 -8.85937 2.12793 19.44923 19.44923 0 0 1 -13.74805-33.20263 19.45209 19.45209 0 0 1 31.0752 22.60742l-.20508.40137 4.668 12.52978z"
        fill="#fff" />
    <g fill="#4bab98">
        <path
            d="m20.4747 2.047a18.42957 18.42957 0 0 1 16.40967 26.8152l-.41052.8025.31469.84465 3.72889 10.0083-10.00843-3.72953-.84472-.31478-.80249.41046a18.51515 18.51515 0 0 1 -8.39356 2.01561 18.42476 18.42476 0 0 1 -13.02368-31.45492 18.30729 18.30729 0 0 1 13.03015-5.39749m0-2.0475a20.47369 20.47369 0 1 0 9.3193 38.70723l14.206 5.29374-5.29276-14.20591a20.477 20.477 0 0 0 -18.23254-29.79503z" />
        <path
            d="m21.2323 10.35356a1.9027 1.9027 0 1 0 -.01836 3.79218 1.8741 1.8741 0 0 0 2.01486-1.88768 1.83251 1.83251 0 0 0 -1.9965-1.9045zm-.037 2.76567a.87271.87271 0 0 1 0-1.74035.87061.87061 0 0 1 0 1.74035zm7.38224.414a1.90243 1.90243 0 1 0 -.0183 3.79158 1.87382 1.87382 0 0 0 2.01485-1.88649 1.83284 1.83284 0 0 0 -1.99651-1.90513zm-.03667 2.76567a.87239.87239 0 0 1 0-1.73976.87031.87031 0 0 1 0 1.73976zm4.781 6.814c0 2.96766-1.70331 5.33045-4.89081 5.33045a4.54177 4.54177 0 0 1 -4.58185-3.97583 4.85344 4.85344 0 0 1 -2.76342.79675 4.54033 4.54033 0 0 1 -2.60279-.77936 4.59754 4.59754 0 0 1 -4.7427 3.95839 4.67077 4.67077 0 0 1 -4.67078-4.98169c0-2.9671 1.70361-5.34845 4.89081-5.34845a4.52132 4.52132 0 0 1 2.60461.78558 4.60641 4.60641 0 0 1 4.74079-3.96582 4.55139 4.55139 0 0 1 4.57934 3.98346 4.8333 4.8333 0 0 1 2.76593-.80322c2.96765 0 4.671 2.38135 4.671 4.99969zm-19.43487-9.57971a1.90244 1.90244 0 1 0 -.01866 3.79158 1.87366 1.87366 0 0 0 2.01486-1.88649 1.8327 1.8327 0 0 0 -1.9962-1.90509zm-.037 2.76567a.87236.87236 0 0 1 0-1.73976.87032.87032 0 0 1 0 1.73976z" />
    </g>
</svg>