<svg height="44" viewBox="0 0 44 44" width="44" xmlns="http://www.w3.org/2000/svg">
    <!-- Curiosity + Concept + Craft by @nyuudo / www.nyuudo.com  -->

    <path
        d="m29.72946 37.59026-.40137.20507a19.54049 19.54049 0 0 1 -8.85937 2.12793 19.44923 19.44923 0 0 1 -13.74805-33.20263 19.45209 19.45209 0 0 1 31.0752 22.60742l-.20508.40137 4.668 12.52978z"
        fill="#fff" />
    <g fill="#4bab98">
        <path
            d="m20.4747 2.047a18.42957 18.42957 0 0 1 16.40967 26.8152l-.41052.8025.31469.84465 3.72889 10.0083-10.00843-3.72953-.84472-.31478-.80249.41046a18.51515 18.51515 0 0 1 -8.39356 2.01561 18.42476 18.42476 0 0 1 -13.02368-31.45492 18.30729 18.30729 0 0 1 13.03015-5.39749m0-2.0475a20.47369 20.47369 0 1 0 9.3193 38.70723l14.206 5.29374-5.29276-14.20591a20.477 20.477 0 0 0 -18.23254-29.79503z" />
        <path
            d="m21.01735 17.22973a3 3 0 1 0 3 3 3 3 0 0 0 -3-3m0 8a5 5 0 1 1 5-5 5 5 0 0 1 -5 5m0-12.5a11.82682 11.82682 0 0 0 -11 7.5 11.81667 11.81667 0 0 0 22 0 11.82682 11.82682 0 0 0 -11-7.5z" />
    </g>
</svg>