<svg height="44" viewBox="0 0 44 44" width="44" xmlns="http://www.w3.org/2000/svg">
    <!-- Curiosity + Concept + Craft by @nyuudo / www.nyuudo.com  -->

    <path
        d="m29.72946 37.59026-.40137.20507a19.54049 19.54049 0 0 1 -8.85937 2.12793 19.44923 19.44923 0 0 1 -13.74805-33.20263 19.45209 19.45209 0 0 1 31.0752 22.60742l-.20508.40137 4.668 12.52978z"
        fill="#fff" />
    <g fill="#4bab98">
        <path
            d="m20.4747 2.047a18.42957 18.42957 0 0 1 16.40967 26.8152l-.41052.8025.31469.84465 3.72889 10.0083-10.00843-3.72953-.84472-.31478-.80249.41046a18.51515 18.51515 0 0 1 -8.39356 2.01561 18.42476 18.42476 0 0 1 -13.02368-31.45492 18.30729 18.30729 0 0 1 13.03015-5.39749m0-2.0475a20.47369 20.47369 0 1 0 9.3193 38.70723l14.206 5.29374-5.29276-14.20591a20.477 20.477 0 0 0 -18.23254-29.79503z" />
        <path
            d="m26.26668 24.53747v1.33916c0 1.44631-1.474 3.34907-4.39335 3.34907-4.01892 0-6.72432-2.492-7.287-6.64454h-2.30369v-.83029a1.11808 1.11808 0 0 1 1.09811-1.2588h1.01834s-.02707-.4821-.02707-.80465c0-.29346.02707-.74879.02707-.74879h-2.11645v-.91063a1.14672 1.14672 0 0 1 1.09811-1.20645h1.20555c.75052-4.36682 3.83088-6.58981 7.421-6.58981 2.51729 0 4.25938 1.58021 4.25938 3.50975v1.20525h-.16128a4.60968 4.60968 0 0 0 -3.58923-1.55344c-2.06261 0-3.77733.77556-4.20613 3.42825h5.73275v.77669a1.25885 1.25885 0 0 1 -1.3124 1.34036h-4.63463s-.02707.45533-.02707.74879c0 .32255.02707.80465.02707.80465h5.947v.85707a1.20335 1.20335 0 0 1 -1.3124 1.232h-4.44709c.375 2.41045 1.68759 3.45615 4.20583 3.45615a4.73052 4.73052 0 0 0 3.6163-1.49984z" />
    </g>
</svg>