<svg height="44" viewBox="0 0 44 44" width="44" xmlns="http://www.w3.org/2000/svg">
    <!-- Curiosity + Concept + Craft by @nyuudo / www.nyuudo.com  -->

    <path
        d="m29.72946 37.59026-.40137.20507a19.54049 19.54049 0 0 1 -8.85937 2.12793 19.44923 19.44923 0 0 1 -13.74805-33.20263 19.45209 19.45209 0 0 1 31.0752 22.60742l-.20508.40137 4.668 12.52978z"
        fill="#fff" />
    <g fill="#4bab98">
        <path
            d="m20.4747 2.047a18.42957 18.42957 0 0 1 16.40967 26.8152l-.41052.8025.31469.84465 3.72889 10.0083-10.00843-3.72953-.84472-.31478-.80249.41046a18.51515 18.51515 0 0 1 -8.39356 2.01561 18.42476 18.42476 0 0 1 -13.02368-31.45492 18.30729 18.30729 0 0 1 13.03015-5.39749m0-2.0475a20.47369 20.47369 0 1 0 9.3193 38.70723l14.206 5.29374-5.29276-14.20591a20.477 20.477 0 0 0 -18.23254-29.79503z" />
        <path
            d="m17.93126 26.293a2.43859 2.43859 0 0 1 -3.53944-.14673 4.28539 4.28539 0 0 1 -.793-.92169 4.28043 4.28043 0 0 1 -.79327.92169 2.438 2.438 0 0 1 -3.53891.14673c-.95955-.8542-.95955-2.32608-.16652-4.03436a13.46776 13.46776 0 0 1 3.01107-4.09321l1.3217-1.17729.0003-.00114.16509-.14673.00054.00054.00059-.00054.16533.14673.0003.00233 1.3217 1.1761a13.47093 13.47093 0 0 1 3.01078 4.09321c.79299 1.70823.79299 3.18011-.16626 4.03436zm-3.45007 1.77816a5.25891 5.25891 0 0 1 -.8824-1.15171 5.25537 5.25537 0 0 1 -.88211 1.15171 3.11428 3.11428 0 0 1 -2.06082 1.05155v.00113h5.90774v-.00113a3.10191 3.10191 0 0 1 -2.08241-1.0516zm10.53713-17.8499a2.438 2.438 0 0 0 -3.53974.14673 4.28673 4.28673 0 0 0 -.79274.92228 4.28824 4.28824 0 0 0 -.79326-.92228 2.437 2.437 0 0 0 -3.53891-.14673c-.95949.85354-.95949 2.32662-.16652 4.03436a13.4708 13.4708 0 0 0 3.01077 4.09375l1.3217 1.17616.0006.00232.16479.14673.0006-.00119.00083.00119.16539-.14673.0003-.00232 1.32169-1.17616a13.46966 13.46966 0 0 0 3.01048-4.09375c.79297-1.70774.79297-3.18082-.16598-4.03436zm3.63674 17.84985a5.26306 5.26306 0 0 1 -.8821-1.15171 5.25748 5.25748 0 0 1 -.8821 1.15171 3.1158 3.1158 0 0 1 -2.06086 1.05155v.00113h5.90774v-.00113a3.10233 3.10233 0 0 1 -2.08268-1.05155zm1.4955-6.66613a2.62766 2.62766 0 0 0 -.31212.0198 2.83627 2.83627 0 0 0 .63115-1.7933 2.69812 2.69812 0 1 0 -5.393 0 2.8392 2.8392 0 0 0 .63056 1.7933 2.6315 2.6315 0 0 0 -.31206-.0198 2.79326 2.79326 0 0 0 0 5.58316 2.68437 2.68437 0 0 0 2.37759-1.47486 2.68512 2.68512 0 0 0 2.3779 1.47486 2.79326 2.79326 0 0 0 0-5.58316z" />
    </g>
</svg>