<svg width="119.3" height="100"
    xmlns="http://www.w3.org/2000/svg">
    <g clip-rule="evenodd" fill-rule="evenodd">
        <path
            d="m16 68.6-5.9 12.4c-3 6.3-.7 14 5.4 17.3 6.5 3.5 14.6.8 17.7-5.8l5.4-11.3c-8.2-2.8-15.9-7-22.6-12.6"
            fill="#1a007f" />
        <path
            d="m109 16.2c-7-1.4-13.8 3.1-15.2 10.1-1.2 6.2-4.1 12-8.2 16.9l11.8 24.7c10.8-9.4 18.9-22.2 21.7-36.6 1.3-6.9-3.2-13.7-10.1-15.1"
            fill="#ff9396" />
        <path
            d="m63.7 57.2c-2.5.6-5.1.9-7.7.9-2 0-4.1-.2-6.2-.7-8.6-1.8-17.2-7.1-22.1-13.6-1.2-1.6-2.2-3.3-2.9-5-2.7-6.6-10.2-9.8-16.8-7.1s-9.7 10.3-7 16.9c3 7.4 8.3 14.3 15 20 6.7 5.6 14.3 9.9 22.6 12.5 5.7 1.8 11.6 2.8 17.4 2.8 6.5 0 12.8-1.1 18.9-3.2z"
            fill="#002dc8" />
        <path
            d="m103.6 80.9-6.2-13-11.8-24.6-17.1-35.9c-2.1-4.5-6.7-7.4-11.7-7.4s-9.5 2.9-11.7 7.4l-17.4 36.7c4.9 6.5 13.5 11.8 22.1 13.6l5.6-11.8c.5-1.1 2.1-1.1 2.7 0l5.5 11.6 11.2 23.5 5.5 11.6c2.1 4.5 6.7 7.4 11.7 7.4 1.2 0 2.3-.2 3.4-.5 8-2.4 11.7-11.3 8.2-18.6"
            fill="#ff536a" />
    </g>
</svg>