<svg enable-background="new 0 0 96.8 100" viewBox="0 0 96.8 100" xmlns="http://www.w3.org/2000/svg" xmlns:xlink="http://www.w3.org/1999/xlink"><linearGradient id="a" gradientTransform="matrix(.982 0 0 -.982 -.487 79.6566)" gradientUnits="userSpaceOnUse" x1="89.8786" x2="7.9306" y1="65.7935" y2="-13.2723"><stop offset=".048" stop-color="#fff44f"/><stop offset=".111" stop-color="#ffe847"/><stop offset=".225" stop-color="#ffc830"/><stop offset=".368" stop-color="#ff980e"/><stop offset=".401" stop-color="#ff8b16"/><stop offset=".462" stop-color="#ff672a"/><stop offset=".534" stop-color="#ff3647"/><stop offset=".705" stop-color="#e31587"/></linearGradient><radialGradient id="b" cx="-8034.9541" cy="8750.5586" gradientTransform="matrix(.982 0 0 -.982 7974.8154 8603.6631)" gradientUnits="userSpaceOnUse" r="102.9077"><stop offset=".129" stop-color="#ffbd4f"/><stop offset=".186" stop-color="#ffac31"/><stop offset=".247" stop-color="#ff9d17"/><stop offset=".283" stop-color="#ff980e"/><stop offset=".403" stop-color="#ff563b"/><stop offset=".467" stop-color="#ff3750"/><stop offset=".71" stop-color="#f5156c"/><stop offset=".782" stop-color="#eb0878"/><stop offset=".86" stop-color="#e50080"/></radialGradient><radialGradient id="c" cx="-8073.8638" cy="8707.7588" gradientTransform="matrix(.982 0 0 -.982 7974.8154 8603.6631)" gradientUnits="userSpaceOnUse" r="102.9077"><stop offset=".3" stop-color="#960e18"/><stop offset=".351" stop-color="#b11927" stop-opacity=".74"/><stop offset=".435" stop-color="#db293d" stop-opacity=".343"/><stop offset=".497" stop-color="#f5334b" stop-opacity=".094"/><stop offset=".53" stop-color="#ff3750" stop-opacity="0"/></radialGradient><radialGradient id="d" cx="-8060.894" cy="8773.9043" gradientTransform="matrix(.982 0 0 -.982 7974.8154 8603.6631)" gradientUnits="userSpaceOnUse" r="74.5444"><stop offset=".132" stop-color="#fff44f"/><stop offset=".252" stop-color="#ffdc3e"/><stop offset=".506" stop-color="#ff9d12"/><stop offset=".526" stop-color="#ff980e"/></radialGradient><radialGradient id="e" cx="-8085.5361" cy="8680.5215" gradientTransform="matrix(.982 0 0 -.982 7974.8154 8603.6631)" gradientUnits="userSpaceOnUse" r="48.9958"><stop offset=".353" stop-color="#3a8ee6"/><stop offset=".472" stop-color="#5c79f0"/><stop offset=".669" stop-color="#9059ff"/><stop offset="1" stop-color="#c139e6"/></radialGradient><radialGradient id="f" cx="-8076.8477" cy="8722.6396" gradientTransform="matrix(.9545 -.2308 -.27 -1.1175 10116.1572 7927.6172)" gradientUnits="userSpaceOnUse" r="25.9816"><stop offset=".206" stop-color="#9059ff" stop-opacity="0"/><stop offset=".278" stop-color="#8c4ff3" stop-opacity=".064"/><stop offset=".747" stop-color="#7716a8" stop-opacity=".45"/><stop offset=".975" stop-color="#6e008b" stop-opacity=".6"/></radialGradient><radialGradient id="g" cx="-8075.1606" cy="8754.4492" gradientTransform="matrix(.982 0 0 -.982 7974.8154 8603.6631)" gradientUnits="userSpaceOnUse" r="35.2535"><stop offset="0" stop-color="#ffe226"/><stop offset=".121" stop-color="#ffdb27"/><stop offset=".295" stop-color="#ffc82a"/><stop offset=".502" stop-color="#ffa930"/><stop offset=".732" stop-color="#ff7e37"/><stop offset=".792" stop-color="#ff7139"/></radialGradient><radialGradient id="h" cx="-8046.627" cy="8777.7949" gradientTransform="matrix(.982 0 0 -.982 7974.8154 8603.6631)" gradientUnits="userSpaceOnUse" r="150.4134"><stop offset=".113" stop-color="#fff44f"/><stop offset=".456" stop-color="#ff980e"/><stop offset=".622" stop-color="#ff5634"/><stop offset=".716" stop-color="#ff3647"/><stop offset=".904" stop-color="#e31587"/></radialGradient><radialGradient id="i" cx="-8056.2485" cy="8780.3818" gradientTransform="matrix(.1031 .9771 .6412 -.06775691 -4738.9756 8458.8311)" gradientUnits="userSpaceOnUse" r="110.1673"><stop offset="0" stop-color="#fff44f"/><stop offset=".06" stop-color="#ffe847"/><stop offset=".168" stop-color="#ffc830"/><stop offset=".304" stop-color="#ff980e"/><stop offset=".356" stop-color="#ff8b16"/><stop offset=".455" stop-color="#ff672a"/><stop offset=".57" stop-color="#ff3647"/><stop offset=".737" stop-color="#e31587"/></radialGradient><radialGradient id="j" cx="-8075.1606" cy="8741.4795" gradientTransform="matrix(.982 0 0 -.982 7974.8154 8603.6631)" gradientUnits="userSpaceOnUse" r="93.8906"><stop offset=".137" stop-color="#fff44f"/><stop offset=".48" stop-color="#ff980e"/><stop offset=".592" stop-color="#ff5634"/><stop offset=".655" stop-color="#ff3647"/><stop offset=".904" stop-color="#e31587"/></radialGradient><radialGradient id="k" cx="-8050.5181" cy="8736.292" gradientTransform="matrix(.982 0 0 -.982 7974.8154 8603.6631)" gradientUnits="userSpaceOnUse" r="102.7676"><stop offset=".094" stop-color="#fff44f"/><stop offset=".231" stop-color="#ffe141"/><stop offset=".509" stop-color="#ffaf1e"/><stop offset=".626" stop-color="#ff980e"/></radialGradient><linearGradient id="l" gradientTransform="matrix(.982 0 0 -.982 -.487 79.6566)" gradientUnits="userSpaceOnUse" x1="88.8741" x2="19.1566" y1="66.2137" y2="-3.5164"><stop offset=".167" stop-color="#fff44f" stop-opacity=".8"/><stop offset=".266" stop-color="#fff44f" stop-opacity=".634"/><stop offset=".489" stop-color="#fff44f" stop-opacity=".217"/><stop offset=".6" stop-color="#fff44f" stop-opacity="0"/></linearGradient><g transform="matrix(.9819843 0 0 .9819843 .697485 .719924)"><path d="m94.3 33.5c-2.1-5.2-6.5-10.7-9.9-12.5 2.4 4.7 4.1 9.8 5 15v.1c-5.6-13.9-15-19.5-22.8-31.7-.4-.6-.8-1.2-1.2-1.9-.2-.4-.4-.7-.5-1-.3-.6-.6-1.3-.7-2 0-.1 0-.1-.1-.1h-.1c-12.4 7.2-16.6 20.6-17 27.3-5 .3-9.7 2.2-13.6 5.2-.4-.3-.8-.7-1.3-1-1.1-3.9-1.2-8.1-.1-12.1-4.6 2.2-8.6 5.3-11.9 9.2-2-2.5-1.8-10.7-1.7-12.4-.6.2-1.1.5-1.6.9-1.7 1.2-3.3 2.6-4.8 4.1-1.7 1.7-3.2 3.6-4.6 5.5-3.2 4.5-5.4 9.6-6.6 15l-.1.3c-.1.4-.4 2.6-.5 3.1v.1c-.4 2.2-.7 4.5-.8 6.8v.3c0 27.3 22.2 49.3 49.5 49.3 24 0 44.5-17.3 48.6-40.9.1-.6.2-1.3.2-1.9.8-8.4-.3-16.9-3.4-24.7zm-56.9 38.6c.2.1.4.2.7.3-.2-.1-.4-.2-.7-.3z" fill="url(#a)"/><path d="m94.3 33.5c-2.1-5.2-6.5-10.7-9.9-12.5 2.4 4.7 4.1 9.8 5 15v.1c3.8 10.9 3.3 22.8-1.5 33.3-5.7 12.1-19.3 24.6-40.8 24-23.1-.7-43.5-17.9-47.4-40.4-.7-3.5 0-5.3.3-8.2-.5 2.2-.7 4.5-.8 6.8v.3c0 27.3 22.2 49.3 49.5 49.3 24 0 44.5-17.3 48.6-40.9.1-.6.2-1.3.2-1.9 1-8.6-.1-17.1-3.2-24.9z" fill="url(#b)"/><path d="m94.3 33.5c-2.1-5.2-6.5-10.7-9.9-12.5 2.4 4.7 4.1 9.8 5 15v.1c3.8 10.9 3.3 22.8-1.5 33.3-5.7 12.1-19.3 24.6-40.8 24-23.1-.7-43.5-17.9-47.4-40.4-.7-3.5 0-5.3.3-8.2-.5 2.2-.7 4.5-.8 6.8v.3c0 27.3 22.2 49.3 49.5 49.3 24 0 44.5-17.3 48.6-40.9.1-.6.2-1.3.2-1.9 1-8.6-.1-17.1-3.2-24.9z" fill="url(#c)"/><path d="m70.3 39.3c.1.1.2.2.3.2-1.2-2.2-2.8-4.2-4.6-6-15.3-15.3-4-33.3-2.1-34.2-12.3 7.2-16.6 20.7-16.9 27.4.6 0 1.1-.1 1.7-.1 9 0 17.2 4.9 21.6 12.7z" fill="url(#d)"/><path d="m48.7 42.3c-.1 1.2-4.4 5.5-5.9 5.5-14 0-16.3 8.5-16.3 8.5.6 7.2 5.6 13 11.6 16.1.3.1.6.3.8.4.5.2 1 .4 1.4.6 2.1.7 4.2 1.1 6.4 1.2 24.6 1.2 29.4-29.4 11.6-38.3 4.2-.5 8.4.5 11.9 2.9-4.4-7.8-12.7-12.6-21.6-12.6-.6 0-1.2 0-1.7.1-5 .3-9.7 2.2-13.6 5.2.8.6 1.6 1.5 3.4 3.3 3.4 3.3 12 6.7 12 7.1z" fill="url(#e)"/><path d="m48.7 42.3c-.1 1.2-4.4 5.5-5.9 5.5-14 0-16.3 8.5-16.3 8.5.6 7.2 5.6 13 11.6 16.1.3.1.6.3.8.4.5.2 1 .4 1.4.6 2.1.7 4.2 1.1 6.4 1.2 24.6 1.2 29.4-29.4 11.6-38.3 4.2-.5 8.4.5 11.9 2.9-4.4-7.8-12.7-12.6-21.6-12.6-.6 0-1.2 0-1.7.1-5 .3-9.7 2.2-13.6 5.2.8.6 1.6 1.5 3.4 3.3 3.4 3.3 12 6.7 12 7.1z" fill="url(#f)"/><path d="m31.1 30.3c.4.3.7.5 1 .7-1.1-3.9-1.2-8.1-.1-12.1-4.6 2.2-8.6 5.3-11.9 9.2.2 0 7.4-.1 11 2.2z" fill="url(#g)"/><path d="m-.3 53c3.8 22.5 24.2 39.7 47.4 40.3 21.4.6 35.1-11.8 40.8-24 4.8-10.5 5.3-22.4 1.5-33.3v.1c1.8 11.4-4.1 22.5-13.2 30v.1c-17.7 14.4-34.7 8.7-38.1 6.4-.2-.1-.5-.2-.7-.4-10.3-4.9-14.6-14.3-13.7-22.4-5 .1-9.6-2.8-11.7-7.4 5.5-3.4 12.4-3.7 18.1-.7 5.8 2.7 12.5 2.9 18.5.7 0-.4-8.6-3.8-12-7.1-1.8-1.8-2.6-2.6-3.4-3.3-.4-.3-.8-.7-1.3-1-.3-.2-.6-.4-1-.7-3.6-2.3-10.8-2.2-11-2.2-2-2.5-1.8-10.7-1.7-12.4-.6.2-1.1.5-1.6.9-1.7 1.2-3.3 2.6-4.8 4.1-1.7 1.7-3.2 3.6-4.6 5.5-3.2 4.5-5.4 9.6-6.6 15 0 .1-1.7 7.8-.9 11.8z" fill="url(#h)"/><path d="m66 33.5c1.8 1.8 3.3 3.8 4.6 6 .3.2.5.4.7.6 11.3 10.3 5.4 24.9 5 25.9 9.1-7.5 14.9-18.6 13.2-30-5.7-13.9-15.1-19.5-22.9-31.7-.4-.6-.8-1.2-1.2-1.9-.2-.4-.4-.7-.5-1-.3-.6-.6-1.3-.7-2 0-.1 0-.1-.1-.1h-.1c-2 .9-13.3 18.8 2 34.2z" fill="url(#i)"/><path d="m71.4 40.1c-.2-.2-.5-.4-.7-.6-.1-.1-.2-.2-.3-.2-3.5-2.4-7.7-3.4-11.9-2.9 17.8 8.9 13 39.4-11.6 38.3-2.2-.1-4.4-.5-6.4-1.2-.5-.2-1-.4-1.4-.6-.3-.1-.6-.3-.8-.4 3.4 2.3 20.4 8.1 38.1-6.4v-.1c.3-1 6.2-15.6-5-25.9z" fill="url(#j)"/><path d="m26.5 56.3s2.3-8.5 16.3-8.5c1.5 0 5.9-4.2 5.9-5.5-6 2.2-12.7 1.9-18.5-.7-5.8-2.9-12.6-2.6-18.1.7 2.1 4.5 6.7 7.4 11.7 7.4-.9 8.1 3.4 17.5 13.7 22.4.2.1.4.2.7.3-6.1-3.1-11.1-9-11.7-16.1z" fill="url(#k)"/><path d="m94.3 33.5c-2.1-5.2-6.5-10.7-9.9-12.5 2.4 4.7 4.1 9.8 5 15v.1c-5.6-13.9-15-19.5-22.8-31.7-.4-.6-.8-1.2-1.2-1.9-.2-.4-.4-.7-.5-1-.3-.6-.6-1.3-.7-2 0-.1 0-.1-.1-.1h-.1c-12.4 7.2-16.6 20.6-17 27.3.6 0 1.1-.1 1.7-.1 9 0 17.2 4.8 21.6 12.6-3.5-2.4-7.7-3.4-11.9-2.9 17.8 8.9 13 39.4-11.6 38.3-2.2-.1-4.4-.5-6.4-1.2-.5-.2-1-.4-1.4-.6-.3-.1-.6-.3-.8-.4-.2-.1-.5-.2-.7-.4.2.1.4.2.7.3-6-3.1-11-9-11.6-16.1 0 0 2.3-8.5 16.3-8.5 1.5 0 5.9-4.2 5.9-5.5 0-.4-8.6-3.8-12-7.1-1.8-1.8-2.6-2.6-3.4-3.3-.4-.3-.8-.7-1.3-1-1.1-3.9-1.2-8.1-.1-12.1-4.6 2.2-8.6 5.3-11.9 9.2-2-2.5-1.8-10.7-1.7-12.4-.6.2-1.1.5-1.6.9-1.7 1.2-3.3 2.6-4.8 4.1-1.7 1.7-3.2 3.6-4.6 5.5-3.2 4.5-5.4 9.6-6.6 15l-.1.3c-.2.7-.6 2.9-.7 3.4-.4 2.3-.6 4.6-.7 6.9v.3c0 27.3 22.2 49.3 49.5 49.3 24 0 44.5-17.3 48.6-40.9.1-.6.2-1.3.2-1.9.9-8.5-.2-17.1-3.3-24.9z" fill="url(#l)"/></g></svg>