<svg height="26" viewBox="0 0 176 26" width="176" xmlns="http://www.w3.org/2000/svg">
    <!-- Curiosity + Concept + Craft by @nyuudo / www.nyuudo.com  -->
    <path
        d="m21.82473 18.00657 2.97877 7.99343-7.99512-2.9782a11.52148 11.52148 0 1 1 5.01635-5.01523zm20.81619-8.42382v6.65143c0 5.53159-2.6014 8.36408-7.77126 8.36408-4.37937 0-7.83712-2.8978-7.83712-8.06766v-10.10917h.82346c2.53552 0 3.65479 1.08634 3.65479 3.16132v6.51967c0 3.26013 1.58092 4.577 3.58948 4.577 1.81092 0 3.09542-1.25157 3.09542-4.28059v-9.9774h.79048c2.56783 0 3.65475 1.08634 3.65475 3.16132zm10.69976-3.49067c-4.67578 0-6.45435 2.37029-6.45435 4.34644v1.41569h.16522c.65819-.82339 2.43674-2.04092 5.63041-2.04092 2.63433 0 3.82005.757 3.82005 3.25956v.23057h-1.54744c-6.52024 0-8.82521 2.40378-8.82521 5.56509 0 3.25956 2.89726 5.6304 7.11251 5.6304h.88931c3.9512 0 6.71728-2.60084 6.71728-6.355v-4.08291c0-6.125-3.55599-7.96892-7.50778-7.96892zm3.19426 12.08475c0 1.811-.92223 2.73314-2.83195 2.73314-1.94323 0-3.0625-.82339-3.0625-2.20614 0-1.44919.95515-2.23964 4.31408-2.23964h1.58037zm23.4438-4.31352v10.33969h-1.18574a2.93442 2.93442 0 0 1 -3.22717-2.8978v-7.04663c0-2.99663-1.31688-4.31408-3.58891-4.31408-1.90976 0-3.22721 1.44864-3.22721 3.98416v10.27435h-1.31682a2.87515 2.87515 0 0 1 -3.096-2.8978v-7.67243c0-3.75417 2.47021-7.60657 8.0018-7.60657 4.18231 0 7.64005 2.79902 7.64005 7.83711zm8.823-7.44188h6.15794v1.81094a2.34618 2.34618 0 0 1 -2.63434 2.10735h-3.5236v6.94784c0 2.305 1.021 3.19426 2.799 3.19426a6.2902 6.2902 0 0 0 3.19426-.62582h.16469v1.581c0 1.81092-1.31746 2.96369-3.88591 2.96369-4.4782 0-6.65142-2.43727-6.65142-6.58555v-10.66968a4.41858 4.41858 0 0 1 1.28395-3.5236 3.08862 3.08862 0 0 1 2.075-1.21753h1.02045zm8.95584-3.85295a2.57172 2.57172 0 0 1 2.56842-2.56848 2.60048 2.60048 0 0 1 2.6014 2.56848 2.62879 2.62879 0 0 1 -2.6014 2.60138 2.60008 2.60008 0 0 1 -2.56843-2.60138zm7.50777 18.17737h.82339v.95461c0 1.90973-.75754 2.66726-2.63434 2.66726-3.42479 0-5.30159-1.94268-5.30159-5.53216v-12.01944h1.251c1.97561 0 3.16133 1.05449 3.16133 3.29305v8.29877c-.00001 1.77745.75752 2.33791 2.7002 2.33791zm7.04551-19.09959h10.10914v1.41626a2.38124 2.38124 0 0 1 -2.56845 2.33791h-6.94785v5.59747h8.13354v1.35092a2.18142 2.18142 0 0 1 -2.17323 2.23853h-5.79501v9.61565h-1.87737a2.36449 2.36449 0 0 1 -2.63433-2.63488v-16.43065c-.00004-2.79956 1.11922-3.49121 3.75355-3.49121zm18.8339 4.44582c-4.67581 0-6.4538 2.37029-6.4538 4.34644v1.41569h.16468c.65816-.82339 2.43559-2.04092 5.63094-2.04092 2.63433 0 3.82005.757 3.82005 3.25956v.23057h-1.54913c-6.51911 0-8.82464 2.40378-8.82464 5.56509 0 3.25956 2.8978 5.6304 7.11251 5.6304h.88985c3.95066 0 6.71729-2.60084 6.71729-6.355v-4.08291c0-6.125-3.55712-7.96892-7.50776-7.96892zm3.19369 12.08475c0 1.811-.92165 2.73314-2.83195 2.73314-1.94269 0-3.06138-.82339-3.06138-2.20614 0-1.44919.954-2.23964 4.31239-2.23964h1.58094zm21.07355 1.64626a7.46027 7.46027 0 0 0 3.42422 2.305 2.71405 2.71405 0 0 1 -2.99661 2.17322 4.33442 4.33442 0 0 1 -2.8984-1.21753 75.85468 75.85468 0 0 1 -6.18974-7.57419v8.66051l-1.41569.03293c-2.042.033-3.02956-1.054-3.02956-3.12837v-20.58117h1.41623a2.68287 2.68287 0 0 1 3.029 2.93076v10.60375a53.66272 53.66272 0 0 1 5.43278-6.45435 4.55411 4.55411 0 0 1 3.5236-1.15222h2.53664v.16414a93.5153 93.5153 0 0 0 -7.21247 8.06823c1.41627 1.74504 2.799 3.55653 4.38 5.16929zm14.28981 1.054c-2.6014 0-4.64344-1.41627-4.97282-3.65479h2.89784c5.8615 0 8.33061-1.054 8.33061-4.31409a6.86289 6.86289 0 0 0 -7.11143-6.882c-5.07271 0-8.694 3.72068-8.694 9.64861a8.75958 8.75958 0 0 0 8.72584 8.92346c4.87452 0 6.422-1.745 6.422-4.01763v-1.3833h-.16524a8.03874 8.03874 0 0 1 -5.43282 1.6797zm-4.97281-7.37609a3.79619 3.79619 0 0 1 3.72178-3.78709c2.04039 0 3.35895.8887 3.35895 2.66727 0 1.25157-.95572 1.71267-5.138 1.71267h-1.97513z"
        fill="#fff" />
</svg>