<svg height="254.42624" viewBox="0 0 320 254.42624" width="320" xmlns="http://www.w3.org/2000/svg">
    <!-- Curiosity + Concept + Craft by @nyuudo / www.nyuudo.com  -->
    <path
        d="m241.111 133.80013a91.84518 91.84518 0 1 0 -40.02181 40.11l63.78894 23.82173zm-51.0011-84.13939c0 4.60946-3.44854 10.22753-11.21081 10.22753h-30.32803v24.49038h35.50294v5.90712a9.53475 9.53475 0 0 1 -9.48751 9.796h-25.29749v42.0651h-8.19176c-7.1875 0-11.49922-3.74434-11.49922-11.52411v-71.88663c0-12.24466 4.88641-15.27149 16.38564-15.27149h44.12633zm-12.36027 161.68172a4.68341 4.68341 0 0 1 4.67218-4.68276 4.73562 4.73562 0 0 1 4.73211 4.68276 4.78733 4.78733 0 0 1 -4.73211 4.74274 4.73519 4.73519 0 0 1 -4.67218-4.74274zm-138.12655 28.79732 5.41857 14.57334-14.54365-5.42975a21.02695 21.02695 0 1 1 9.12505-9.14359zm37.866-15.358v12.12665c0 10.085-4.73212 15.24909-14.13642 15.24909-7.96634 0-14.2562-5.28317-14.2562-14.70867v-18.43068h1.49785c4.61227 0 6.64829 1.98057 6.64829 5.76361v11.88642c0 5.94376 2.87579 8.34465 6.52949 8.34465 3.29417 0 5.63075-2.28182 5.63075-7.80422v-18.19046h1.43794c4.67109 0 6.64822 1.98057 6.64822 5.76361zm19.46353-6.36407c-8.50557 0-11.74088 4.32141-11.74088 7.92427v2.58102h.30058c1.19724-1.5012 4.43255-3.721 10.242-3.721 4.792 0 6.94893 1.38014 6.94893 5.94271v.42038h-2.81494c-11.86072 0-16.05357 4.38246-16.05357 10.14606 0 5.94271 5.27027 10.26516 12.93809 10.26516h1.61769c7.1875 0 12.21912-4.74176 12.21912-11.58625v-7.44387c0-11.16682-6.46852-14.52848-13.65707-14.52848zm5.81055 22.03248c0 3.30165-1.6776 4.983-5.15149 4.983-3.53487 0-5.57088-1.50116-5.57088-4.02217 0-2.6421 1.73748-4.08325 7.84756-4.08325h2.87481zm42.64573-7.86424v18.851h-2.15689c-3.59375 0-5.87044-2.28182-5.87044-5.28317v-12.84721c0-5.46336-2.39549-7.86529-6.52845-7.86529-3.474 0-5.87049 2.64111-5.87049 7.26379v18.73193h-2.39548c-3.415 0-5.63179-2.28182-5.63179-5.28317v-13.9882c0-6.84446 4.49347-13.868 14.55577-13.868 7.60788-.00003 13.89772 5.10304 13.89772 14.28837zm16.04957-13.56778h11.20166v3.30165c0 1.68131-1.49779 3.842-4.792 3.842h-6.40964v12.66707c0 4.20236 1.85732 5.82364 5.09159 5.82364a11.42049 11.42049 0 0 0 5.81049-1.14093h.29958v2.8824c0 3.3016-2.39653 5.40327-7.0687 5.40327-8.14614 0-12.09936-4.44352-12.09936-12.00653v-19.45254a8.06607 8.06607 0 0 1 2.33559-6.4241 5.61565 5.61565 0 0 1 3.77453-2.21975h1.85628zm29.94827 26.11583h1.49779v1.7404c0 3.48174-1.378 4.86285-4.792 4.86285-6.22991 0-9.64392-3.54182-9.64392-10.086v-21.9135h2.27565c3.59375 0 5.75065 1.92252 5.75065 6.00378v15.13c-.00002 3.24061 1.37797 4.26247 4.91183 4.26247zm12.81622-34.8217h18.38922v2.58207a4.33607 4.33607 0 0 1 -4.67217 4.2624h-12.63857v10.2051h14.79541v2.463a3.97259 3.97259 0 0 1 -3.95323 4.08121h-10.54161v17.531h-3.41506c-2.99459 0-4.792-1.56125-4.792-4.80381v-29.95596c-.00001-5.10407 2.036-6.36506 6.82806-6.36506zm34.26 8.10546c-8.50558 0-11.73989 4.32141-11.73989 7.92427v2.58097h.29962c1.19721-1.5012 4.43051-3.721 10.243-3.721 4.792 0 6.94892 1.38014 6.94892 5.94271v.42038h-2.8179c-11.85867 0-16.05257 4.38246-16.05257 10.14606 0 5.94271 5.27128 10.26516 12.93809 10.26516h1.61865c7.18654 0 12.2192-4.74176 12.2192-11.58625v-7.44387c0-11.16682-6.4706-14.52848-13.65707-14.52848zm5.80954 22.03248c0 3.30165-1.67656 4.983-5.15152 4.983-3.53384 0-5.56881-1.50116-5.56881-4.02217 0-2.6421 1.73544-4.08325 7.84452-4.08325h2.87581zm38.33406 3.00141c2.93471 2.94236 4.25281 3.54182 6.22887 4.20236-.83775 2.582-2.15684 3.96214-5.451 3.96214a7.87564 7.87564 0 0 1 -5.27237-2.21976 138.23243 138.23243 0 0 1 -11.25953-13.809v15.78957l-2.57522.06c-3.71463.06008-5.511-1.92154-5.511-5.70353v-37.52286h2.57622c3.89233 0 5.51 2.22179 5.51 5.34325v19.33238a97.78192 97.78192 0 0 1 9.88257-11.76735c1.91826-1.80142 3.83442-2.10068 6.40964-2.10068h4.61431v.29926c-2.27669 1.92154-9.76579 10.44732-13.11986 14.70971 2.57622 3.18149 5.09155 6.48413 7.96739 9.42446zm25.99408 1.92154c-4.73213 0-8.44671-2.5821-9.04589-6.66331h5.27135c10.66242 0 15.15389-1.92154 15.15389-7.86529 0-7.74512-6.22891-12.547-12.93613-12.547-9.22756 0-15.81491 6.7834-15.81491 17.591a15.95228 15.95228 0 0 0 15.87282 16.26891c8.86711 0 11.682-3.18147 11.682-7.32481v-2.522h-.30065c-2.57511 2.40294-6.52841 3.06245-9.88246 3.06245zm-9.04589-13.44767c.17974-3.722 2.87585-6.9045 6.77017-6.9045 3.71158 0 6.11012 1.62021 6.11012 4.86285 0 2.28181-1.73852 3.1225-9.34642 3.1225h-3.59275z"
        fill="#fff" />
</svg>