<svg height="512" viewBox="0 0 512 512" width="512" xmlns="http://www.w3.org/2000/svg">
    <!-- Curiosity + Concept + Craft by @nyuudo / www.nyuudo.com  -->
    <path
        d="m443.57308 343.51c44.18469-86.389 30.159-194.86543-42.15351-267.18165-89.77244-89.77245-235.314-89.77872-325.0876-.00254-89.77236 89.77228-89.77744 235.324-.00508 325.09775 72.31123 72.30734 180.79141 86.328 267.17666 42.151l159.49629 59.42914z"
        fill="#4bab98" />
    <path
        d="m316.05121 133.60312c0 11.49941-8.62266 25.51512-28.03125 25.51512h-75.83164v61.09738h88.77062v14.7368a23.81376 23.81376 0 0 1 -23.72238 24.43847h-63.2532v104.94192h-20.48254c-17.97141 0-28.75235-9.34114-28.75235-28.74973v-179.33914c0-30.54738 12.218-38.09855 40.97032-38.09855h110.33242z"
        fill="#fff" />
</svg>